<?xml version="1.0" standalone="no"?>
<!DOCTYPE svg PUBLIC "-//W3C//DTD SVG 20010904//EN"
 "http://www.w3.org/TR/2001/REC-SVG-20010904/DTD/svg10.dtd">
<svg version="1.0" xmlns="http://www.w3.org/2000/svg"
 width="700.000000pt" height="138.000000pt" viewBox="0 0 300.138."
 preserveAspectRatio="xMidYMid meet">

<g transform="translate(0.000000,138.000000) scale(0.100000,-0.100000)"
fill="#000000" stroke="none">
<path d="M120 690 c0 -453 3 -690 10 -690 7 0 10 237 10 690 0 453 -3 690 -10
690 -7 0 -10 -237 -10 -690z"/>
<path d="M577 1314 c2 -36 0 -71 -4 -77 -9 -13 -19 -416 -10 -407 3 3 7 57 10
120 3 63 7 122 10 130 3 8 8 73 12 143 3 70 9 135 12 143 3 9 -2 14 -15 14
-18 0 -19 -5 -15 -66z"/>
<path d="M1245 1218 c-61 -13 -100 -37 -129 -82 l-27 -41 3 -421 3 -420 27
-41 c14 -22 43 -48 65 -58 47 -23 152 -32 182 -15 17 9 26 9 37 -1 8 -6 14 -8
14 -5 0 4 10 2 21 -5 13 -7 19 -7 15 -1 -3 6 -2 13 4 17 6 4 7 11 4 17 -4 6 0
14 7 19 8 5 9 9 3 9 -7 0 -11 56 -13 167 -1 92 -4 170 -6 173 -2 4 -174 5
-205 1 -10 -2 -10 -54 0 -66 7 -9 31 -11 74 -8 l63 5 7 -32 c9 -49 7 -148 -4
-155 -5 -3 -7 -12 -4 -19 3 -7 -4 -23 -15 -37 -16 -20 -28 -24 -79 -24 -56 0
-63 3 -96 37 -20 20 -37 45 -37 55 -1 10 -2 32 -4 48 -6 72 -5 707 1 732 9 34
19 44 65 66 47 22 117 19 141 -5 21 -21 24 -48 4 -48 -8 0 -13 -8 -11 -17 2
-10 4 -24 4 -30 1 -9 18 -13 54 -13 59 0 80 10 72 32 -4 11 0 18 12 21 14 4
14 5 -4 6 -15 1 -33 17 -54 49 -18 26 -42 55 -55 64 -31 25 -92 36 -139 26z"/>
<path d="M1618 1213 c-17 -7 -35 -10 -41 -6 -5 3 -7 2 -4 -4 7 -11 -14 -63
-24 -63 -7 0 -10 -214 -11 -672 -1 -214 1 -251 16 -272 27 -42 59 -56 143 -63
67 -5 86 -3 126 15 77 34 79 44 85 409 2 171 1 377 -3 458 -6 132 -9 149 -30
173 -21 25 -30 27 -125 32 -71 3 -112 1 -132 -7z m210 -87 c15 -15 17 -58 17
-447 l0 -431 -28 -24 c-24 -20 -38 -24 -95 -24 -38 0 -74 6 -83 13 -11 8 -20
37 -25 77 -11 77 -10 701 0 782 6 49 11 58 34 67 41 16 160 7 180 -13z"/>
<path d="M1788 1123 c7 -3 16 -2 19 1 4 3 -2 6 -13 5 -11 0 -14 -3 -6 -6z"/>
<path d="M2038 1203 c-54 -34 -55 -50 -59 -533 -4 -405 -2 -448 13 -476 23
-42 62 -56 161 -58 92 -1 127 11 161 57 20 28 21 40 24 471 3 497 2 509 -58
538 -49 25 -203 25 -242 1z m224 -70 c17 -15 18 -47 18 -446 0 -418 -1 -430
-21 -458 -19 -28 -24 -29 -98 -29 -46 0 -84 5 -94 12 -29 22 -36 137 -32 505
3 381 8 415 53 432 37 15 152 4 174 -16z"/>
<path d="M2404 1206 c-10 -25 3 -45 33 -52 15 -3 34 -7 41 -10 11 -3 16 -222
17 -826 l0 -123 -33 -3 c-29 -3 -33 -6 -30 -30 l3 -27 155 0 c132 1 166 4 230
24 41 12 86 34 101 47 20 19 28 22 38 11 11 -10 13 -9 8 6 -6 15 -3 17 16 12
17 -5 19 -4 7 4 -13 10 -13 12 0 20 10 7 17 6 23 -2 5 -7 5 -2 2 12 -6 20 -4
23 9 18 10 -4 14 -3 11 3 -3 5 4 20 16 34 11 13 21 27 20 30 0 3 10 26 24 50
55 99 68 344 25 459 -11 28 -16 55 -13 60 3 6 1 7 -4 4 -6 -4 -16 5 -21 21
-18 46 -85 125 -149 174 -34 25 -59 49 -55 54 4 4 2 4 -4 1 -7 -4 -33 3 -60
14 -41 19 -73 22 -226 27 -158 4 -178 3 -184 -12z m310 -61 c74 -6 136 -40
219 -119 68 -64 122 -148 113 -172 -3 -9 -1 -12 4 -9 10 6 15 -26 12 -73 0
-13 3 -20 9 -16 19 11 5 -196 -15 -235 -10 -18 -12 -30 -6 -26 7 4 -3 -20 -21
-53 -29 -54 -49 -71 -49 -41 0 6 5 7 10 4 15 -9 12 11 -4 24 -23 19 -29 -5
-11 -40 9 -17 12 -28 6 -25 -6 4 -11 1 -11 -6 0 -18 -38 -50 -51 -43 -5 4 -9
3 -8 -2 4 -23 -2 -35 -16 -29 -8 3 -14 0 -12 -7 1 -7 -29 -28 -68 -46 -61 -30
-82 -35 -162 -39 l-93 -4 0 273 c-1 151 -3 367 -7 481 -6 231 -9 221 67 212
19 -2 61 -6 94 -9z"/>
<path d="M2980 965 c0 -5 5 -17 10 -25 5 -8 10 -10 10 -5 0 6 -5 17 -10 25 -5
8 -10 11 -10 5z"/>
<path d="M3052 570 c0 -14 2 -19 5 -12 2 6 2 18 0 25 -3 6 -5 1 -5 -13z"/>
<path d="M3469 1209 c-13 -4 -17 -8 -9 -9 11 -1 9 -4 -5 -10 -19 -8 -19 -9 -1
-9 13 -1 17 -6 13 -21 -4 -16 0 -20 18 -20 l24 0 2 -162 c1 -90 4 -301 6 -470
l4 -307 -33 -3 c-18 -2 -31 -7 -30 -12 2 -5 -2 -13 -10 -17 -10 -7 -10 -9 0
-9 6 0 12 -7 12 -16 0 -15 10 -16 82 -10 44 4 84 9 88 11 15 9 -2 55 -20 55
-23 0 -29 94 -31 480 -2 464 -1 470 16 470 20 0 46 -29 103 -115 117 -179 164
-245 172 -245 6 0 10 4 10 8 0 5 8 17 18 28 23 24 97 122 141 185 18 27 37 49
41 49 16 0 20 -75 19 -409 -1 -404 -5 -456 -34 -456 -15 0 -20 -7 -20 -25 0
-24 2 -25 79 -28 54 -2 82 1 87 9 12 19 -1 39 -26 39 -13 0 -25 6 -28 14 -3 8
-6 236 -7 507 0 270 -3 496 -7 502 -10 16 -142 -140 -248 -294 -24 -35 -31
-36 -46 -6 -6 12 -52 84 -102 159 l-92 137 -55 1 c-30 1 -67 2 -81 4 -14 1
-37 -2 -50 -5z"/>
<path d="M4472 1193 c2 -19 9 -29 24 -31 l20 -3 -18 -132 c-29 -214 -145 -773
-170 -819 -5 -10 -20 -18 -33 -18 -20 0 -25 -5 -25 -25 0 -30 22 -37 105 -33
58 3 60 4 63 31 3 22 -1 30 -17 34 -25 6 -26 15 -5 98 l16 65 139 0 c77 0 139
-2 139 -4 0 -2 7 -40 15 -83 8 -43 15 -79 15 -80 0 -2 -13 -3 -30 -3 -22 0
-30 -5 -30 -17 0 -40 14 -45 95 -39 84 6 99 13 93 42 -2 14 -14 20 -41 22 -20
2 -37 5 -37 6 0 30 -48 344 -69 459 -16 83 -37 202 -46 262 -9 61 -26 152 -37
203 l-20 92 -74 0 -75 0 3 -27z m152 -273 c14 -91 38 -239 52 -328 14 -90 23
-167 19 -170 -8 -8 -236 -5 -243 3 -3 3 13 96 36 208 41 202 52 267 73 427 19
146 19 145 63 -140z"/>
<path d="M4928 1215 c-5 -5 -8 -18 -8 -31 0 -23 17 -34 55 -34 23 0 23 -1 29
-152 3 -84 8 -300 11 -480 l5 -328 -35 0 c-32 0 -35 -2 -35 -30 l0 -29 118 4
c280 10 331 26 442 136 79 78 115 147 135 260 36 203 -3 386 -106 503 -18 21
-27 40 -23 47 4 8 3 9 -5 5 -6 -4 -18 0 -27 9 -30 29 -122 83 -171 100 -52 18
-372 34 -385 20z m302 -66 c84 -13 143 -48 230 -133 79 -78 103 -121 125 -224
20 -98 19 -163 -5 -257 -25 -98 -58 -155 -129 -224 -83 -80 -163 -114 -278
-119 -72 -3 -94 -1 -97 9 -3 8 -6 227 -9 487 l-4 472 51 0 c28 0 80 -5 116
-11z"/>
<path d="M5718 1196 c-6 -28 8 -47 28 -39 12 4 14 -71 14 -476 0 -421 -2 -481
-15 -481 -10 0 -15 -11 -15 -35 l0 -35 179 0 178 0 7 39 c8 49 1 68 -28 73
-20 4 -55 -19 -48 -32 1 -3 -40 -6 -91 -8 l-94 -3 -2 62 -2 61 88 -7 c48 -4
90 -11 91 -16 5 -12 49 -11 57 1 10 16 12 81 3 86 -5 3 -6 9 -3 14 11 18 -37
18 -53 -1 -14 -16 -30 -19 -98 -19 l-81 0 -7 31 c-9 48 -7 722 3 737 6 11 32
13 107 10 94 -3 99 -5 102 -26 3 -19 9 -23 30 -20 25 3 27 6 27 53 l0 50 -186
3 -187 2 -4 -24z"/>
<path d="M1448 1143 c7 -3 16 -2 19 1 4 3 -2 6 -13 5 -11 0 -14 -3 -6 -6z"/>
<path d="M1072 1110 c0 -14 2 -19 5 -12 2 6 2 18 0 25 -3 6 -5 1 -5 -13z"/>
<path d="M1040 1101 c0 -6 4 -13 10 -16 6 -3 7 1 4 9 -7 18 -14 21 -14 7z"/>
<path d="M510 1060 c0 -5 5 -10 10 -10 6 0 10 5 10 10 0 6 -4 10 -10 10 -5 0
-10 -4 -10 -10z"/>
<path d="M3039 1047 c6 -8 7 -18 3 -22 -4 -5 -1 -5 6 -1 10 6 10 11 1 22 -6 8
-14 14 -16 14 -3 0 0 -6 6 -13z"/>
<path d="M3096 965 c-9 -26 -7 -32 5 -12 6 10 9 21 6 23 -2 3 -7 -2 -11 -11z"/>
<path d="M3183 680 c0 -25 2 -35 4 -22 2 12 2 32 0 45 -2 12 -4 2 -4 -23z"/>
<path d="M3162 675 c0 -16 2 -22 5 -12 2 9 2 23 0 30 -3 6 -5 -1 -5 -18z"/>
<path d="M520 650 c0 -11 5 -20 10 -20 6 0 10 9 10 20 0 11 -4 20 -10 20 -5 0
-10 -9 -10 -20z"/>
<path d="M521 594 c0 -11 3 -14 6 -6 3 7 2 16 -1 19 -3 4 -6 -2 -5 -13z"/>
<path d="M1468 553 c7 -3 16 -2 19 1 4 3 -2 6 -13 5 -11 0 -14 -3 -6 -6z"/>
<path d="M494 507 c-7 -8 -7 -20 0 -39 15 -40 26 -35 26 12 0 41 -7 48 -26 27z"/>
<path d="M491 338 c1 -7 5 -24 9 -38 8 -24 8 -24 9 7 1 17 -3 35 -9 38 -5 3
-10 0 -9 -7z"/>
<path d="M3101 304 c0 -11 3 -14 6 -6 3 7 2 16 -1 19 -3 4 -6 -2 -5 -13z"/>
<path d="M490 235 c0 -15 4 -24 10 -20 6 3 10 12 10 20 0 8 -4 17 -10 20 -6 4
-10 -5 -10 -20z"/>
<path d="M1091 235 c1 -19 18 -51 18 -35 0 8 -4 22 -9 30 -5 8 -9 11 -9 5z"/>
<path d="M1050 219 c0 -5 5 -7 10 -4 6 3 10 8 10 11 0 2 -4 4 -10 4 -5 0 -10
-5 -10 -11z"/>
<path d="M482 60 l0 -65 10 44 c6 29 6 51 0 65 -8 16 -11 7 -10 -44z"/>
</g>
</svg>
